<svg width="68" height="59" viewBox="0 0 68 59" fill="none" xmlns="http://www.w3.org/2000/svg">
<path d="M15.4334 0.159998V25H7.62144V0.159998H15.4334ZM22.3814 0.159998V5.992H0.673438V0.159998H22.3814ZM29.7271 0.0159998C31.1671 0.0159998 32.6431 0.0279996 34.1551 0.0519993C35.6911 0.0519993 37.1911 0.0879989 38.6551 0.159998C40.1191 0.207999 41.4511 0.315999 42.6511 0.483998L42.2911 5.992H33.1831C32.7271 5.992 32.3671 6.112 32.1031 6.352C31.8391 6.592 31.7071 6.904 31.7071 7.288V17.872C31.7071 18.256 31.8391 18.568 32.1031 18.808C32.3671 19.048 32.7271 19.168 33.1831 19.168H42.2911L42.6511 24.676C41.4511 24.82 40.1191 24.928 38.6551 25C37.1911 25.072 35.6911 25.108 34.1551 25.108C32.6431 25.132 31.1671 25.144 29.7271 25.144C28.0231 25.144 26.6191 24.628 25.5151 23.596C24.4351 22.54 23.8951 21.172 23.8951 19.492V5.668C23.8951 3.988 24.4351 2.632 25.5151 1.6C26.6191 0.543999 28.0231 0.0159998 29.7271 0.0159998ZM24.5431 9.7H40.9951V14.884H24.5431V9.7ZM67.8404 0.159998V22.3C67.8404 24.1 66.9404 25 65.1404 25H62.1524C61.3364 25 60.7244 24.808 60.3164 24.424C59.9324 24.04 59.5364 23.476 59.1284 22.732L53.7284 14.2C53.3924 13.576 53.0804 12.904 52.7924 12.184C52.5284 11.44 52.2884 10.696 52.0724 9.952H51.8204C51.9404 10.696 52.0244 11.464 52.0724 12.256C52.1444 13.024 52.1804 13.768 52.1804 14.488V25H44.9804V2.86C44.9804 1.06 45.8804 0.159998 47.6804 0.159998H50.6684C51.4844 0.159998 52.0844 0.351998 52.4684 0.735999C52.8524 1.12 53.2604 1.684 53.6924 2.428L58.8764 10.564C59.2124 11.164 59.5364 11.824 59.8484 12.544C60.1844 13.264 60.4964 14.02 60.7844 14.812H61.0364C60.9404 14.044 60.8564 13.288 60.7844 12.544C60.7364 11.8 60.7124 11.056 60.7124 10.312L60.6764 0.159998H67.8404ZM17.4373 33.16V58H9.62534V33.16H17.4373ZM24.3853 33.16V38.992H2.67734V33.16H24.3853ZM37.9728 33.16C38.5968 33.16 39.1488 33.34 39.6288 33.7C40.1088 34.06 40.4328 34.552 40.6008 35.176L47.0448 58H39.0888L35.3448 41.836C35.2488 41.38 35.1648 40.912 35.0928 40.432C35.0208 39.928 34.9608 39.448 34.9128 38.992H33.9408C33.8928 39.448 33.8328 39.928 33.7608 40.432C33.6888 40.912 33.6048 41.38 33.5088 41.836L29.7648 58H21.8088L28.2528 35.176C28.4208 34.552 28.7448 34.06 29.2248 33.7C29.7048 33.34 30.2568 33.16 30.8808 33.16H37.9728ZM41.0328 47.164V52.636H27.8208V47.164H41.0328ZM58.3058 32.728C59.6018 32.728 60.7058 32.764 61.6178 32.836C62.5298 32.908 63.3578 33.016 64.1018 33.16C64.8698 33.28 65.6618 33.46 66.4778 33.7L65.9018 39.388C65.0618 39.364 64.2818 39.352 63.5618 39.352C62.8418 39.352 62.0738 39.352 61.2578 39.352C60.4418 39.328 59.4578 39.316 58.3058 39.316C57.4898 39.316 56.8538 39.496 56.3978 39.856C55.9658 40.192 55.6658 40.816 55.4978 41.728C55.3298 42.616 55.2458 43.9 55.2458 45.58C55.2458 47.26 55.3298 48.556 55.4978 49.468C55.6658 50.356 55.9658 50.98 56.3978 51.34C56.8538 51.676 57.4898 51.844 58.3058 51.844C60.1058 51.844 61.6058 51.832 62.8058 51.808C64.0298 51.76 65.2418 51.676 66.4418 51.556L67.0178 57.244C65.7698 57.676 64.4858 57.976 63.1658 58.144C61.8698 58.336 60.2498 58.432 58.3058 58.432C55.5698 58.432 53.3738 58.024 51.7178 57.208C50.0618 56.368 48.8618 55.012 48.1178 53.14C47.3978 51.268 47.0378 48.748 47.0378 45.58C47.0378 42.412 47.3978 39.892 48.1178 38.02C48.8618 36.148 50.0618 34.804 51.7178 33.988C53.3738 33.148 55.5698 32.728 58.3058 32.728Z" fill="#22263D"/>
</svg>
