<svg width="70" height="66" viewBox="0 0 70 66" fill="none" xmlns="http://www.w3.org/2000/svg">
<path d="M15.4334 6.16V31H7.62144V6.16H15.4334ZM22.3814 6.16V11.992H0.673438V6.16H22.3814ZM29.7271 6.016C31.1671 6.016 32.6431 6.028 34.1551 6.052C35.6911 6.052 37.1911 6.088 38.6551 6.16C40.1191 6.208 41.4511 6.316 42.6511 6.484L42.2911 11.992H33.1831C32.7271 11.992 32.3671 12.112 32.1031 12.352C31.8391 12.592 31.7071 12.904 31.7071 13.288V23.872C31.7071 24.256 31.8391 24.568 32.1031 24.808C32.3671 25.048 32.7271 25.168 33.1831 25.168H42.2911L42.6511 30.676C41.4511 30.82 40.1191 30.928 38.6551 31C37.1911 31.072 35.6911 31.108 34.1551 31.108C32.6431 31.132 31.1671 31.144 29.7271 31.144C28.0231 31.144 26.6191 30.628 25.5151 29.596C24.4351 28.54 23.8951 27.172 23.8951 25.492V11.668C23.8951 9.988 24.4351 8.632 25.5151 7.6C26.6191 6.544 28.0231 6.016 29.7271 6.016ZM24.5431 15.7H40.9951V20.884H24.5431V15.7ZM67.8404 6.16V28.3C67.8404 30.1 66.9404 31 65.1404 31H62.1524C61.3364 31 60.7244 30.808 60.3164 30.424C59.9324 30.04 59.5364 29.476 59.1284 28.732L53.7284 20.2C53.3924 19.576 53.0804 18.904 52.7924 18.184C52.5284 17.44 52.2884 16.696 52.0724 15.952H51.8204C51.9404 16.696 52.0244 17.464 52.0724 18.256C52.1444 19.024 52.1804 19.768 52.1804 20.488V31H44.9804V8.86C44.9804 7.06 45.8804 6.16 47.6804 6.16H50.6684C51.4844 6.16 52.0844 6.352 52.4684 6.736C52.8524 7.12 53.2604 7.684 53.6924 8.428L58.8764 16.564C59.2124 17.164 59.5364 17.824 59.8484 18.544C60.1844 19.264 60.4964 20.02 60.7844 20.812H61.0364C60.9404 20.044 60.8564 19.288 60.7844 18.544C60.7364 17.8 60.7124 17.056 60.7124 16.312L60.6764 6.16H67.8404ZM17.4373 39.16V64H9.62534V39.16H17.4373ZM24.3853 39.16V44.992H2.67734V39.16H24.3853ZM37.9728 39.16C38.5968 39.16 39.1488 39.34 39.6288 39.7C40.1088 40.06 40.4328 40.552 40.6008 41.176L47.0448 64H39.0888L35.3448 47.836C35.2488 47.38 35.1648 46.912 35.0928 46.432C35.0208 45.928 34.9608 45.448 34.9128 44.992H33.9408C33.8928 45.448 33.8328 45.928 33.7608 46.432C33.6888 46.912 33.6048 47.38 33.5088 47.836L29.7648 64H21.8088L28.2528 41.176C28.4208 40.552 28.7448 40.06 29.2248 39.7C29.7048 39.34 30.2568 39.16 30.8808 39.16H37.9728ZM41.0328 53.164V58.636H27.8208V53.164H41.0328ZM58.3058 38.728C59.6018 38.728 60.7058 38.764 61.6178 38.836C62.5298 38.908 63.3578 39.016 64.1018 39.16C64.8698 39.28 65.6618 39.46 66.4778 39.7L65.9018 45.388C65.0618 45.364 64.2818 45.352 63.5618 45.352C62.8418 45.352 62.0738 45.352 61.2578 45.352C60.4418 45.328 59.4578 45.316 58.3058 45.316C57.4898 45.316 56.8538 45.496 56.3978 45.856C55.9658 46.192 55.6658 46.816 55.4978 47.728C55.3298 48.616 55.2458 49.9 55.2458 51.58C55.2458 53.26 55.3298 54.556 55.4978 55.468C55.6658 56.356 55.9658 56.98 56.3978 57.34C56.8538 57.676 57.4898 57.844 58.3058 57.844C60.1058 57.844 61.6058 57.832 62.8058 57.808C64.0298 57.76 65.2418 57.676 66.4418 57.556L67.0178 63.244C65.7698 63.676 64.4858 63.976 63.1658 64.144C61.8698 64.336 60.2498 64.432 58.3058 64.432C55.5698 64.432 53.3738 64.024 51.7178 63.208C50.0618 62.368 48.8618 61.012 48.1178 59.14C47.3978 57.268 47.0378 54.748 47.0378 51.58C47.0378 48.412 47.3978 45.892 48.1178 44.02C48.8618 42.148 50.0618 40.804 51.7178 39.988C53.3738 39.148 55.5698 38.728 58.3058 38.728Z" fill="white"/>
</svg>
